<mxfile host="app.diagrams.net" agent="Mozilla/5.0 (Windows NT 10.0; Win64; x64) AppleWebKit/537.36 (KHTML, like Gecko) Chrome/128.0.0.0 Safari/537.36 OPR/114.0.0.0 (Edition MSI)" version="24.8.4">
  <diagram id="C5RBs43oDa-KdzZeNtuy" name="Page-1">
    <mxGraphModel dx="1633" dy="1013" grid="0" gridSize="10" guides="1" tooltips="1" connect="1" arrows="1" fold="1" page="1" pageScale="1" pageWidth="3300" pageHeight="4681" math="0" shadow="0">
      <root>
        <mxCell id="WIyWlLk6GJQsqaUBKTNV-0" />
        <mxCell id="WIyWlLk6GJQsqaUBKTNV-1" parent="WIyWlLk6GJQsqaUBKTNV-0" />
        <mxCell id="sUbH88XKsCmU9Ldnoq6X-129" value="Game" style="swimlane;fontStyle=0;childLayout=stackLayout;horizontal=1;startSize=26;fillColor=none;horizontalStack=0;resizeParent=1;resizeParentMax=0;resizeLast=0;collapsible=1;marginBottom=0;whiteSpace=wrap;html=1;" vertex="1" parent="WIyWlLk6GJQsqaUBKTNV-1">
          <mxGeometry x="1012" y="190" width="140" height="164" as="geometry" />
        </mxCell>
        <mxCell id="sUbH88XKsCmU9Ldnoq6X-130" value="score: Int" style="text;strokeColor=none;fillColor=none;align=left;verticalAlign=top;spacingLeft=4;spacingRight=4;overflow=hidden;rotatable=0;points=[[0,0.5],[1,0.5]];portConstraint=eastwest;whiteSpace=wrap;html=1;" vertex="1" parent="sUbH88XKsCmU9Ldnoq6X-129">
          <mxGeometry y="26" width="140" height="26" as="geometry" />
        </mxCell>
        <mxCell id="sUbH88XKsCmU9Ldnoq6X-131" value="level: Int" style="text;strokeColor=none;fillColor=none;align=left;verticalAlign=top;spacingLeft=4;spacingRight=4;overflow=hidden;rotatable=0;points=[[0,0.5],[1,0.5]];portConstraint=eastwest;whiteSpace=wrap;html=1;" vertex="1" parent="sUbH88XKsCmU9Ldnoq6X-129">
          <mxGeometry y="52" width="140" height="26" as="geometry" />
        </mxCell>
        <mxCell id="sUbH88XKsCmU9Ldnoq6X-147" value="board: Board" style="text;strokeColor=none;fillColor=none;align=left;verticalAlign=top;spacingLeft=4;spacingRight=4;overflow=hidden;rotatable=0;points=[[0,0.5],[1,0.5]];portConstraint=eastwest;whiteSpace=wrap;html=1;" vertex="1" parent="sUbH88XKsCmU9Ldnoq6X-129">
          <mxGeometry y="78" width="140" height="26" as="geometry" />
        </mxCell>
        <mxCell id="sUbH88XKsCmU9Ldnoq6X-133" value="" style="line;strokeWidth=1;fillColor=none;align=left;verticalAlign=middle;spacingTop=-1;spacingLeft=3;spacingRight=3;rotatable=0;labelPosition=right;points=[];portConstraint=eastwest;strokeColor=inherit;" vertex="1" parent="sUbH88XKsCmU9Ldnoq6X-129">
          <mxGeometry y="104" width="140" height="8" as="geometry" />
        </mxCell>
        <mxCell id="sUbH88XKsCmU9Ldnoq6X-140" value="updateScore()" style="text;strokeColor=none;fillColor=none;align=left;verticalAlign=top;spacingLeft=4;spacingRight=4;overflow=hidden;rotatable=0;points=[[0,0.5],[1,0.5]];portConstraint=eastwest;whiteSpace=wrap;html=1;" vertex="1" parent="sUbH88XKsCmU9Ldnoq6X-129">
          <mxGeometry y="112" width="140" height="26" as="geometry" />
        </mxCell>
        <mxCell id="sUbH88XKsCmU9Ldnoq6X-212" value="checkPressedKeys()" style="text;strokeColor=none;fillColor=none;align=left;verticalAlign=top;spacingLeft=4;spacingRight=4;overflow=hidden;rotatable=0;points=[[0,0.5],[1,0.5]];portConstraint=eastwest;whiteSpace=wrap;html=1;" vertex="1" parent="sUbH88XKsCmU9Ldnoq6X-129">
          <mxGeometry y="138" width="140" height="26" as="geometry" />
        </mxCell>
        <mxCell id="sUbH88XKsCmU9Ldnoq6X-134" value="GameManager" style="swimlane;fontStyle=0;childLayout=stackLayout;horizontal=1;startSize=26;fillColor=none;horizontalStack=0;resizeParent=1;resizeParentMax=0;resizeLast=0;collapsible=1;marginBottom=0;whiteSpace=wrap;html=1;" vertex="1" parent="WIyWlLk6GJQsqaUBKTNV-1">
          <mxGeometry x="901.25" y="463" width="244.5" height="138" as="geometry">
            <mxRectangle x="260" y="53" width="115" height="26" as="alternateBounds" />
          </mxGeometry>
        </mxCell>
        <mxCell id="sUbH88XKsCmU9Ldnoq6X-136" value="game: Game" style="text;strokeColor=none;fillColor=none;align=left;verticalAlign=top;spacingLeft=4;spacingRight=4;overflow=hidden;rotatable=0;points=[[0,0.5],[1,0.5]];portConstraint=eastwest;whiteSpace=wrap;html=1;" vertex="1" parent="sUbH88XKsCmU9Ldnoq6X-134">
          <mxGeometry y="26" width="244.5" height="26" as="geometry" />
        </mxCell>
        <mxCell id="sUbH88XKsCmU9Ldnoq6X-209" value="drawBoardManager: DrawBoardManager" style="text;strokeColor=none;fillColor=none;align=left;verticalAlign=top;spacingLeft=4;spacingRight=4;overflow=hidden;rotatable=0;points=[[0,0.5],[1,0.5]];portConstraint=eastwest;whiteSpace=wrap;html=1;" vertex="1" parent="sUbH88XKsCmU9Ldnoq6X-134">
          <mxGeometry y="52" width="244.5" height="26" as="geometry" />
        </mxCell>
        <mxCell id="sUbH88XKsCmU9Ldnoq6X-210" value="soundManager: SoundManager" style="text;strokeColor=none;fillColor=none;align=left;verticalAlign=top;spacingLeft=4;spacingRight=4;overflow=hidden;rotatable=0;points=[[0,0.5],[1,0.5]];portConstraint=eastwest;whiteSpace=wrap;html=1;" vertex="1" parent="sUbH88XKsCmU9Ldnoq6X-134">
          <mxGeometry y="78" width="244.5" height="26" as="geometry" />
        </mxCell>
        <mxCell id="sUbH88XKsCmU9Ldnoq6X-137" value="" style="line;strokeWidth=1;fillColor=none;align=left;verticalAlign=middle;spacingTop=-1;spacingLeft=3;spacingRight=3;rotatable=0;labelPosition=right;points=[];portConstraint=eastwest;strokeColor=inherit;" vertex="1" parent="sUbH88XKsCmU9Ldnoq6X-134">
          <mxGeometry y="104" width="244.5" height="8" as="geometry" />
        </mxCell>
        <mxCell id="sUbH88XKsCmU9Ldnoq6X-139" value="play()" style="text;strokeColor=none;fillColor=none;align=left;verticalAlign=top;spacingLeft=4;spacingRight=4;overflow=hidden;rotatable=0;points=[[0,0.5],[1,0.5]];portConstraint=eastwest;whiteSpace=wrap;html=1;" vertex="1" parent="sUbH88XKsCmU9Ldnoq6X-134">
          <mxGeometry y="112" width="244.5" height="26" as="geometry" />
        </mxCell>
        <mxCell id="sUbH88XKsCmU9Ldnoq6X-141" value="Board" style="swimlane;fontStyle=0;childLayout=stackLayout;horizontal=1;startSize=26;fillColor=none;horizontalStack=0;resizeParent=1;resizeParentMax=0;resizeLast=0;collapsible=1;marginBottom=0;whiteSpace=wrap;html=1;" vertex="1" parent="WIyWlLk6GJQsqaUBKTNV-1">
          <mxGeometry x="1291.5" y="163" width="239" height="268" as="geometry" />
        </mxCell>
        <mxCell id="sUbH88XKsCmU9Ldnoq6X-142" value="width: Float" style="text;strokeColor=none;fillColor=none;align=left;verticalAlign=top;spacingLeft=4;spacingRight=4;overflow=hidden;rotatable=0;points=[[0,0.5],[1,0.5]];portConstraint=eastwest;whiteSpace=wrap;html=1;" vertex="1" parent="sUbH88XKsCmU9Ldnoq6X-141">
          <mxGeometry y="26" width="239" height="26" as="geometry" />
        </mxCell>
        <mxCell id="sUbH88XKsCmU9Ldnoq6X-143" value="hight: Float" style="text;strokeColor=none;fillColor=none;align=left;verticalAlign=top;spacingLeft=4;spacingRight=4;overflow=hidden;rotatable=0;points=[[0,0.5],[1,0.5]];portConstraint=eastwest;whiteSpace=wrap;html=1;" vertex="1" parent="sUbH88XKsCmU9Ldnoq6X-141">
          <mxGeometry y="52" width="239" height="26" as="geometry" />
        </mxCell>
        <mxCell id="sUbH88XKsCmU9Ldnoq6X-151" value="cells: List&amp;lt;List&amp;lt;Cell&amp;gt; &amp;gt;&amp;nbsp;" style="text;strokeColor=none;fillColor=none;align=left;verticalAlign=top;spacingLeft=4;spacingRight=4;overflow=hidden;rotatable=0;points=[[0,0.5],[1,0.5]];portConstraint=eastwest;whiteSpace=wrap;html=1;" vertex="1" parent="sUbH88XKsCmU9Ldnoq6X-141">
          <mxGeometry y="78" width="239" height="26" as="geometry" />
        </mxCell>
        <mxCell id="sUbH88XKsCmU9Ldnoq6X-269" value="tetrominoes: List&amp;lt;List&amp;lt;Tetromino&amp;gt; &amp;gt;" style="text;strokeColor=none;fillColor=none;align=left;verticalAlign=top;spacingLeft=4;spacingRight=4;overflow=hidden;rotatable=0;points=[[0,0.5],[1,0.5]];portConstraint=eastwest;whiteSpace=wrap;html=1;" vertex="1" parent="sUbH88XKsCmU9Ldnoq6X-141">
          <mxGeometry y="104" width="239" height="26" as="geometry" />
        </mxCell>
        <mxCell id="sUbH88XKsCmU9Ldnoq6X-334" value="drawBoardManager: DrawBoardManager" style="text;strokeColor=none;fillColor=none;align=left;verticalAlign=top;spacingLeft=4;spacingRight=4;overflow=hidden;rotatable=0;points=[[0,0.5],[1,0.5]];portConstraint=eastwest;whiteSpace=wrap;html=1;" vertex="1" parent="sUbH88XKsCmU9Ldnoq6X-141">
          <mxGeometry y="130" width="239" height="26" as="geometry" />
        </mxCell>
        <mxCell id="sUbH88XKsCmU9Ldnoq6X-144" value="" style="line;strokeWidth=1;fillColor=none;align=left;verticalAlign=middle;spacingTop=-1;spacingLeft=3;spacingRight=3;rotatable=0;labelPosition=right;points=[];portConstraint=eastwest;strokeColor=inherit;" vertex="1" parent="sUbH88XKsCmU9Ldnoq6X-141">
          <mxGeometry y="156" width="239" height="8" as="geometry" />
        </mxCell>
        <mxCell id="sUbH88XKsCmU9Ldnoq6X-145" value="drawBoard()" style="text;strokeColor=none;fillColor=none;align=left;verticalAlign=top;spacingLeft=4;spacingRight=4;overflow=hidden;rotatable=0;points=[[0,0.5],[1,0.5]];portConstraint=eastwest;whiteSpace=wrap;html=1;" vertex="1" parent="sUbH88XKsCmU9Ldnoq6X-141">
          <mxGeometry y="164" width="239" height="26" as="geometry" />
        </mxCell>
        <mxCell id="sUbH88XKsCmU9Ldnoq6X-146" value="startGame()" style="text;strokeColor=none;fillColor=none;align=left;verticalAlign=top;spacingLeft=4;spacingRight=4;overflow=hidden;rotatable=0;points=[[0,0.5],[1,0.5]];portConstraint=eastwest;whiteSpace=wrap;html=1;" vertex="1" parent="sUbH88XKsCmU9Ldnoq6X-141">
          <mxGeometry y="190" width="239" height="26" as="geometry" />
        </mxCell>
        <mxCell id="sUbH88XKsCmU9Ldnoq6X-149" value="createTetromino(tetromino: Tetromino)" style="text;strokeColor=none;fillColor=none;align=left;verticalAlign=top;spacingLeft=4;spacingRight=4;overflow=hidden;rotatable=0;points=[[0,0.5],[1,0.5]];portConstraint=eastwest;whiteSpace=wrap;html=1;" vertex="1" parent="sUbH88XKsCmU9Ldnoq6X-141">
          <mxGeometry y="216" width="239" height="26" as="geometry" />
        </mxCell>
        <mxCell id="sUbH88XKsCmU9Ldnoq6X-150" value="removeLine(_y: Float)" style="text;strokeColor=none;fillColor=none;align=left;verticalAlign=top;spacingLeft=4;spacingRight=4;overflow=hidden;rotatable=0;points=[[0,0.5],[1,0.5]];portConstraint=eastwest;whiteSpace=wrap;html=1;" vertex="1" parent="sUbH88XKsCmU9Ldnoq6X-141">
          <mxGeometry y="242" width="239" height="26" as="geometry" />
        </mxCell>
        <mxCell id="sUbH88XKsCmU9Ldnoq6X-157" value="HistoryManager" style="swimlane;fontStyle=0;childLayout=stackLayout;horizontal=1;startSize=26;fillColor=none;horizontalStack=0;resizeParent=1;resizeParentMax=0;resizeLast=0;collapsible=1;marginBottom=0;whiteSpace=wrap;html=1;" vertex="1" parent="WIyWlLk6GJQsqaUBKTNV-1">
          <mxGeometry x="1339" y="754" width="326" height="120" as="geometry">
            <mxRectangle x="260" y="53" width="115" height="26" as="alternateBounds" />
          </mxGeometry>
        </mxCell>
        <mxCell id="sUbH88XKsCmU9Ldnoq6X-337" value="drawHistoryManager: DrawHistoryManager" style="text;strokeColor=none;fillColor=none;align=left;verticalAlign=top;spacingLeft=4;spacingRight=4;overflow=hidden;rotatable=0;points=[[0,0.5],[1,0.5]];portConstraint=eastwest;whiteSpace=wrap;html=1;" vertex="1" parent="sUbH88XKsCmU9Ldnoq6X-157">
          <mxGeometry y="26" width="326" height="26" as="geometry" />
        </mxCell>
        <mxCell id="sUbH88XKsCmU9Ldnoq6X-336" value="" style="line;strokeWidth=1;fillColor=none;align=left;verticalAlign=middle;spacingTop=-1;spacingLeft=3;spacingRight=3;rotatable=0;labelPosition=right;points=[];portConstraint=eastwest;strokeColor=inherit;" vertex="1" parent="sUbH88XKsCmU9Ldnoq6X-157">
          <mxGeometry y="52" width="326" height="8" as="geometry" />
        </mxCell>
        <mxCell id="sUbH88XKsCmU9Ldnoq6X-160" value="saveToHistory(playerName: String, score: Int, level: Int)" style="text;strokeColor=none;fillColor=none;align=left;verticalAlign=top;spacingLeft=4;spacingRight=4;overflow=hidden;rotatable=0;points=[[0,0.5],[1,0.5]];portConstraint=eastwest;whiteSpace=wrap;html=1;" vertex="1" parent="sUbH88XKsCmU9Ldnoq6X-157">
          <mxGeometry y="60" width="326" height="30" as="geometry" />
        </mxCell>
        <mxCell id="sUbH88XKsCmU9Ldnoq6X-161" value="loadAndDrawHistory()" style="text;strokeColor=none;fillColor=none;align=left;verticalAlign=top;spacingLeft=4;spacingRight=4;overflow=hidden;rotatable=0;points=[[0,0.5],[1,0.5]];portConstraint=eastwest;whiteSpace=wrap;html=1;" vertex="1" parent="sUbH88XKsCmU9Ldnoq6X-157">
          <mxGeometry y="90" width="326" height="30" as="geometry" />
        </mxCell>
        <mxCell id="sUbH88XKsCmU9Ldnoq6X-162" value="MenuManager" style="swimlane;fontStyle=0;childLayout=stackLayout;horizontal=1;startSize=26;fillColor=none;horizontalStack=0;resizeParent=1;resizeParentMax=0;resizeLast=0;collapsible=1;marginBottom=0;whiteSpace=wrap;html=1;" vertex="1" parent="WIyWlLk6GJQsqaUBKTNV-1">
          <mxGeometry x="887" y="686" width="270" height="242" as="geometry">
            <mxRectangle x="260" y="53" width="115" height="26" as="alternateBounds" />
          </mxGeometry>
        </mxCell>
        <mxCell id="sUbH88XKsCmU9Ldnoq6X-163" value="gameManager: GameManager" style="text;strokeColor=none;fillColor=none;align=left;verticalAlign=top;spacingLeft=4;spacingRight=4;overflow=hidden;rotatable=0;points=[[0,0.5],[1,0.5]];portConstraint=eastwest;whiteSpace=wrap;html=1;" vertex="1" parent="sUbH88XKsCmU9Ldnoq6X-162">
          <mxGeometry y="26" width="270" height="26" as="geometry" />
        </mxCell>
        <mxCell id="sUbH88XKsCmU9Ldnoq6X-166" value="historyManager: HistoryManager" style="text;strokeColor=none;fillColor=none;align=left;verticalAlign=top;spacingLeft=4;spacingRight=4;overflow=hidden;rotatable=0;points=[[0,0.5],[1,0.5]];portConstraint=eastwest;whiteSpace=wrap;html=1;" vertex="1" parent="sUbH88XKsCmU9Ldnoq6X-162">
          <mxGeometry y="52" width="270" height="26" as="geometry" />
        </mxCell>
        <mxCell id="sUbH88XKsCmU9Ldnoq6X-167" value="settingsManager: SettingsManager" style="text;strokeColor=none;fillColor=none;align=left;verticalAlign=top;spacingLeft=4;spacingRight=4;overflow=hidden;rotatable=0;points=[[0,0.5],[1,0.5]];portConstraint=eastwest;whiteSpace=wrap;html=1;" vertex="1" parent="sUbH88XKsCmU9Ldnoq6X-162">
          <mxGeometry y="78" width="270" height="26" as="geometry" />
        </mxCell>
        <mxCell id="sUbH88XKsCmU9Ldnoq6X-170" value="aboutManager: AboutManager" style="text;strokeColor=none;fillColor=none;align=left;verticalAlign=top;spacingLeft=4;spacingRight=4;overflow=hidden;rotatable=0;points=[[0,0.5],[1,0.5]];portConstraint=eastwest;whiteSpace=wrap;html=1;" vertex="1" parent="sUbH88XKsCmU9Ldnoq6X-162">
          <mxGeometry y="104" width="270" height="26" as="geometry" />
        </mxCell>
        <mxCell id="sUbH88XKsCmU9Ldnoq6X-164" value="" style="line;strokeWidth=1;fillColor=none;align=left;verticalAlign=middle;spacingTop=-1;spacingLeft=3;spacingRight=3;rotatable=0;labelPosition=right;points=[];portConstraint=eastwest;strokeColor=inherit;" vertex="1" parent="sUbH88XKsCmU9Ldnoq6X-162">
          <mxGeometry y="130" width="270" height="8" as="geometry" />
        </mxCell>
        <mxCell id="sUbH88XKsCmU9Ldnoq6X-165" value="play()" style="text;strokeColor=none;fillColor=none;align=left;verticalAlign=top;spacingLeft=4;spacingRight=4;overflow=hidden;rotatable=0;points=[[0,0.5],[1,0.5]];portConstraint=eastwest;whiteSpace=wrap;html=1;" vertex="1" parent="sUbH88XKsCmU9Ldnoq6X-162">
          <mxGeometry y="138" width="270" height="26" as="geometry" />
        </mxCell>
        <mxCell id="sUbH88XKsCmU9Ldnoq6X-168" value="settings()" style="text;strokeColor=none;fillColor=none;align=left;verticalAlign=top;spacingLeft=4;spacingRight=4;overflow=hidden;rotatable=0;points=[[0,0.5],[1,0.5]];portConstraint=eastwest;whiteSpace=wrap;html=1;" vertex="1" parent="sUbH88XKsCmU9Ldnoq6X-162">
          <mxGeometry y="164" width="270" height="26" as="geometry" />
        </mxCell>
        <mxCell id="sUbH88XKsCmU9Ldnoq6X-169" value="history()" style="text;strokeColor=none;fillColor=none;align=left;verticalAlign=top;spacingLeft=4;spacingRight=4;overflow=hidden;rotatable=0;points=[[0,0.5],[1,0.5]];portConstraint=eastwest;whiteSpace=wrap;html=1;" vertex="1" parent="sUbH88XKsCmU9Ldnoq6X-162">
          <mxGeometry y="190" width="270" height="26" as="geometry" />
        </mxCell>
        <mxCell id="sUbH88XKsCmU9Ldnoq6X-171" value="aboutGame()" style="text;strokeColor=none;fillColor=none;align=left;verticalAlign=top;spacingLeft=4;spacingRight=4;overflow=hidden;rotatable=0;points=[[0,0.5],[1,0.5]];portConstraint=eastwest;whiteSpace=wrap;html=1;" vertex="1" parent="sUbH88XKsCmU9Ldnoq6X-162">
          <mxGeometry y="216" width="270" height="26" as="geometry" />
        </mxCell>
        <mxCell id="sUbH88XKsCmU9Ldnoq6X-173" value="SettingsManager" style="swimlane;fontStyle=0;childLayout=stackLayout;horizontal=1;startSize=26;fillColor=none;horizontalStack=0;resizeParent=1;resizeParentMax=0;resizeLast=0;collapsible=1;marginBottom=0;whiteSpace=wrap;html=1;" vertex="1" parent="WIyWlLk6GJQsqaUBKTNV-1">
          <mxGeometry x="535" y="678" width="260" height="190" as="geometry">
            <mxRectangle x="260" y="53" width="115" height="26" as="alternateBounds" />
          </mxGeometry>
        </mxCell>
        <mxCell id="sUbH88XKsCmU9Ldnoq6X-177" value="settings: Settings" style="text;strokeColor=none;fillColor=none;align=left;verticalAlign=top;spacingLeft=4;spacingRight=4;overflow=hidden;rotatable=0;points=[[0,0.5],[1,0.5]];portConstraint=eastwest;whiteSpace=wrap;html=1;" vertex="1" parent="sUbH88XKsCmU9Ldnoq6X-173">
          <mxGeometry y="26" width="260" height="26" as="geometry" />
        </mxCell>
        <mxCell id="sUbH88XKsCmU9Ldnoq6X-328" value="drawSettingsManager: DrawSettingsManager" style="text;strokeColor=none;fillColor=none;align=left;verticalAlign=top;spacingLeft=4;spacingRight=4;overflow=hidden;rotatable=0;points=[[0,0.5],[1,0.5]];portConstraint=eastwest;whiteSpace=wrap;html=1;" vertex="1" parent="sUbH88XKsCmU9Ldnoq6X-173">
          <mxGeometry y="52" width="260" height="26" as="geometry" />
        </mxCell>
        <mxCell id="sUbH88XKsCmU9Ldnoq6X-175" value="" style="line;strokeWidth=1;fillColor=none;align=left;verticalAlign=middle;spacingTop=-1;spacingLeft=3;spacingRight=3;rotatable=0;labelPosition=right;points=[];portConstraint=eastwest;strokeColor=inherit;" vertex="1" parent="sUbH88XKsCmU9Ldnoq6X-173">
          <mxGeometry y="78" width="260" height="8" as="geometry" />
        </mxCell>
        <mxCell id="sUbH88XKsCmU9Ldnoq6X-176" value="setPlayerName(_playerName: String)" style="text;strokeColor=none;fillColor=none;align=left;verticalAlign=top;spacingLeft=4;spacingRight=4;overflow=hidden;rotatable=0;points=[[0,0.5],[1,0.5]];portConstraint=eastwest;whiteSpace=wrap;html=1;" vertex="1" parent="sUbH88XKsCmU9Ldnoq6X-173">
          <mxGeometry y="86" width="260" height="26" as="geometry" />
        </mxCell>
        <mxCell id="sUbH88XKsCmU9Ldnoq6X-178" value="setSoundsVolume(_soundsVolume: Float)" style="text;strokeColor=none;fillColor=none;align=left;verticalAlign=top;spacingLeft=4;spacingRight=4;overflow=hidden;rotatable=0;points=[[0,0.5],[1,0.5]];portConstraint=eastwest;whiteSpace=wrap;html=1;" vertex="1" parent="sUbH88XKsCmU9Ldnoq6X-173">
          <mxGeometry y="112" width="260" height="26" as="geometry" />
        </mxCell>
        <mxCell id="sUbH88XKsCmU9Ldnoq6X-179" value="getPlayerName(_playerName: String)" style="text;strokeColor=none;fillColor=none;align=left;verticalAlign=top;spacingLeft=4;spacingRight=4;overflow=hidden;rotatable=0;points=[[0,0.5],[1,0.5]];portConstraint=eastwest;whiteSpace=wrap;html=1;" vertex="1" parent="sUbH88XKsCmU9Ldnoq6X-173">
          <mxGeometry y="138" width="260" height="26" as="geometry" />
        </mxCell>
        <mxCell id="sUbH88XKsCmU9Ldnoq6X-180" value="getSoundsVolume(_soundsVolume: Float)" style="text;strokeColor=none;fillColor=none;align=left;verticalAlign=top;spacingLeft=4;spacingRight=4;overflow=hidden;rotatable=0;points=[[0,0.5],[1,0.5]];portConstraint=eastwest;whiteSpace=wrap;html=1;" vertex="1" parent="sUbH88XKsCmU9Ldnoq6X-173">
          <mxGeometry y="164" width="260" height="26" as="geometry" />
        </mxCell>
        <mxCell id="sUbH88XKsCmU9Ldnoq6X-185" value="&lt;p style=&quot;margin:0px;margin-top:4px;text-align:center;&quot;&gt;&lt;i&gt;&amp;lt;&amp;lt;Abstract&amp;gt;&amp;gt;&lt;/i&gt;&lt;br&gt;&lt;b&gt;Block&lt;/b&gt;&lt;/p&gt;&lt;hr size=&quot;1&quot; style=&quot;border-style:solid;&quot;&gt;&lt;p style=&quot;margin:0px;margin-left:4px;&quot;&gt;point: Point&lt;/p&gt;&lt;p style=&quot;margin:0px;margin-left:4px;&quot;&gt;status: Bool&lt;/p&gt;" style="verticalAlign=top;align=left;overflow=fill;html=1;whiteSpace=wrap;" vertex="1" parent="WIyWlLk6GJQsqaUBKTNV-1">
          <mxGeometry x="1590" y="585" width="190" height="78" as="geometry" />
        </mxCell>
        <mxCell id="sUbH88XKsCmU9Ldnoq6X-186" value="Point" style="swimlane;fontStyle=0;childLayout=stackLayout;horizontal=1;startSize=26;fillColor=none;horizontalStack=0;resizeParent=1;resizeParentMax=0;resizeLast=0;collapsible=1;marginBottom=0;whiteSpace=wrap;html=1;" vertex="1" parent="WIyWlLk6GJQsqaUBKTNV-1">
          <mxGeometry x="1598" y="368" width="175" height="164" as="geometry">
            <mxRectangle x="260" y="53" width="115" height="26" as="alternateBounds" />
          </mxGeometry>
        </mxCell>
        <mxCell id="sUbH88XKsCmU9Ldnoq6X-187" value="x: Float&lt;span style=&quot;color: rgba(0, 0, 0, 0); font-family: monospace; font-size: 0px; text-wrap: nowrap;&quot;&gt;%3CmxGraphModel%3E%3Croot%3E%3CmxCell%20id%3D%220%22%2F%3E%3CmxCell%20id%3D%221%22%20parent%3D%220%22%2F%3E%3CmxCell%20id%3D%222%22%20value%3D%22GameManager%22%20style%3D%22swimlane%3BfontStyle%3D0%3BchildLayout%3DstackLayout%3Bhorizontal%3D1%3BstartSize%3D26%3BfillColor%3Dnone%3BhorizontalStack%3D0%3BresizeParent%3D1%3BresizeParentMax%3D0%3BresizeLast%3D0%3Bcollapsible%3D1%3BmarginBottom%3D0%3BwhiteSpace%3Dwrap%3Bhtml%3D1%3B%22%20vertex%3D%221%22%20parent%3D%221%22%3E%3CmxGeometry%20x%3D%22267%22%20y%3D%2286%22%20width%3D%22140%22%20height%3D%2286%22%20as%3D%22geometry%22%3E%3CmxRectangle%20x%3D%22260%22%20y%3D%2253%22%20width%3D%22115%22%20height%3D%2226%22%20as%3D%22alternateBounds%22%2F%3E%3C%2FmxGeometry%3E%3C%2FmxCell%3E%3CmxCell%20id%3D%223%22%20value%3D%22game%3A%20Game%22%20style%3D%22text%3BstrokeColor%3Dnone%3BfillColor%3Dnone%3Balign%3Dleft%3BverticalAlign%3Dtop%3BspacingLeft%3D4%3BspacingRight%3D4%3Boverflow%3Dhidden%3Brotatable%3D0%3Bpoints%3D%5B%5B0%2C0.5%5D%2C%5B1%2C0.5%5D%5D%3BportConstraint%3Deastwest%3BwhiteSpace%3Dwrap%3Bhtml%3D1%3B%22%20vertex%3D%221%22%20parent%3D%222%22%3E%3CmxGeometry%20y%3D%2226%22%20width%3D%22140%22%20height%3D%2226%22%20as%3D%22geometry%22%2F%3E%3C%2FmxCell%3E%3CmxCell%20id%3D%224%22%20value%3D%22%22%20style%3D%22line%3BstrokeWidth%3D1%3BfillColor%3Dnone%3Balign%3Dleft%3BverticalAlign%3Dmiddle%3BspacingTop%3D-1%3BspacingLeft%3D3%3BspacingRight%3D3%3Brotatable%3D0%3BlabelPosition%3Dright%3Bpoints%3D%5B%5D%3BportConstraint%3Deastwest%3BstrokeColor%3Dinherit%3B%22%20vertex%3D%221%22%20parent%3D%222%22%3E%3CmxGeometry%20y%3D%2252%22%20width%3D%22140%22%20height%3D%228%22%20as%3D%22geometry%22%2F%3E%3C%2FmxCell%3E%3CmxCell%20id%3D%225%22%20value%3D%22startGame()%3A%20Bool%22%20style%3D%22text%3BstrokeColor%3Dnone%3BfillColor%3Dnone%3Balign%3Dleft%3BverticalAlign%3Dtop%3BspacingLeft%3D4%3BspacingRight%3D4%3Boverflow%3Dhidden%3Brotatable%3D0%3Bpoints%3D%5B%5B0%2C0.5%5D%2C%5B1%2C0.5%5D%5D%3BportConstraint%3Deastwest%3BwhiteSpace%3Dwrap%3Bhtml%3D1%3B%22%20vertex%3D%221%22%20parent%3D%222%22%3E%3CmxGeometry%20y%3D%2260%22%20width%3D%22140%22%20height%3D%2226%22%20as%3D%22geometry%22%2F%3E%3C%2FmxCell%3E%3C%2Froot%3E%3C%2FmxGraphModel%3E&lt;/span&gt;" style="text;strokeColor=none;fillColor=none;align=left;verticalAlign=top;spacingLeft=4;spacingRight=4;overflow=hidden;rotatable=0;points=[[0,0.5],[1,0.5]];portConstraint=eastwest;whiteSpace=wrap;html=1;" vertex="1" parent="sUbH88XKsCmU9Ldnoq6X-186">
          <mxGeometry y="26" width="175" height="26" as="geometry" />
        </mxCell>
        <mxCell id="sUbH88XKsCmU9Ldnoq6X-190" value="y: Float&lt;span style=&quot;color: rgba(0, 0, 0, 0); font-family: monospace; font-size: 0px; text-wrap: nowrap;&quot;&gt;%3CmxGraphModel%3E%3Croot%3E%3CmxCell%20id%3D%220%22%2F%3E%3CmxCell%20id%3D%221%22%20parent%3D%220%22%2F%3E%3CmxCell%20id%3D%222%22%20value%3D%22GameManager%22%20style%3D%22swimlane%3BfontStyle%3D0%3BchildLayout%3DstackLayout%3Bhorizontal%3D1%3BstartSize%3D26%3BfillColor%3Dnone%3BhorizontalStack%3D0%3BresizeParent%3D1%3BresizeParentMax%3D0%3BresizeLast%3D0%3Bcollapsible%3D1%3BmarginBottom%3D0%3BwhiteSpace%3Dwrap%3Bhtml%3D1%3B%22%20vertex%3D%221%22%20parent%3D%221%22%3E%3CmxGeometry%20x%3D%22267%22%20y%3D%2286%22%20width%3D%22140%22%20height%3D%2286%22%20as%3D%22geometry%22%3E%3CmxRectangle%20x%3D%22260%22%20y%3D%2253%22%20width%3D%22115%22%20height%3D%2226%22%20as%3D%22alternateBounds%22%2F%3E%3C%2FmxGeometry%3E%3C%2FmxCell%3E%3CmxCell%20id%3D%223%22%20value%3D%22game%3A%20Game%22%20style%3D%22text%3BstrokeColor%3Dnone%3BfillColor%3Dnone%3Balign%3Dleft%3BverticalAlign%3Dtop%3BspacingLeft%3D4%3BspacingRight%3D4%3Boverflow%3Dhidden%3Brotatable%3D0%3Bpoints%3D%5B%5B0%2C0.5%5D%2C%5B1%2C0.5%5D%5D%3BportConstraint%3Deastwest%3BwhiteSpace%3Dwrap%3Bhtml%3D1%3B%22%20vertex%3D%221%22%20parent%3D%222%22%3E%3CmxGeometry%20y%3D%2226%22%20width%3D%22140%22%20height%3D%2226%22%20as%3D%22geometry%22%2F%3E%3C%2FmxCell%3E%3CmxCell%20id%3D%224%22%20value%3D%22%22%20style%3D%22line%3BstrokeWidth%3D1%3BfillColor%3Dnone%3Balign%3Dleft%3BverticalAlign%3Dmiddle%3BspacingTop%3D-1%3BspacingLeft%3D3%3BspacingRight%3D3%3Brotatable%3D0%3BlabelPosition%3Dright%3Bpoints%3D%5B%5D%3BportConstraint%3Deastwest%3BstrokeColor%3Dinherit%3B%22%20vertex%3D%221%22%20parent%3D%222%22%3E%3CmxGeometry%20y%3D%2252%22%20width%3D%22140%22%20height%3D%228%22%20as%3D%22geometry%22%2F%3E%3C%2FmxCell%3E%3CmxCell%20id%3D%225%22%20value%3D%22startGame()%3A%20Bool%22%20style%3D%22text%3BstrokeColor%3Dnone%3BfillColor%3Dnone%3Balign%3Dleft%3BverticalAlign%3Dtop%3BspacingLeft%3D4%3BspacingRight%3D4%3Boverflow%3Dhidden%3Brotatable%3D0%3Bpoints%3D%5B%5B0%2C0.5%5D%2C%5B1%2C0.5%5D%5D%3BportConstraint%3Deastwest%3BwhiteSpace%3Dwrap%3Bhtml%3D1%3B%22%20vertex%3D%221%22%20parent%3D%222%22%3E%3CmxGeometry%20y%3D%2260%22%20width%3D%22140%22%20height%3D%2226%22%20as%3D%22geometry%22%2F%3E%3C%2FmxCell%3E%3C%2Froot%3E%3C%2FmxGraphModel%3E&lt;/span&gt;" style="text;strokeColor=none;fillColor=none;align=left;verticalAlign=top;spacingLeft=4;spacingRight=4;overflow=hidden;rotatable=0;points=[[0,0.5],[1,0.5]];portConstraint=eastwest;whiteSpace=wrap;html=1;" vertex="1" parent="sUbH88XKsCmU9Ldnoq6X-186">
          <mxGeometry y="52" width="175" height="26" as="geometry" />
        </mxCell>
        <mxCell id="sUbH88XKsCmU9Ldnoq6X-188" value="" style="line;strokeWidth=1;fillColor=none;align=left;verticalAlign=middle;spacingTop=-1;spacingLeft=3;spacingRight=3;rotatable=0;labelPosition=right;points=[];portConstraint=eastwest;strokeColor=inherit;" vertex="1" parent="sUbH88XKsCmU9Ldnoq6X-186">
          <mxGeometry y="78" width="175" height="8" as="geometry" />
        </mxCell>
        <mxCell id="sUbH88XKsCmU9Ldnoq6X-189" value="move(_x: Float, _y: Float)" style="text;strokeColor=none;fillColor=none;align=left;verticalAlign=top;spacingLeft=4;spacingRight=4;overflow=hidden;rotatable=0;points=[[0,0.5],[1,0.5]];portConstraint=eastwest;whiteSpace=wrap;html=1;" vertex="1" parent="sUbH88XKsCmU9Ldnoq6X-186">
          <mxGeometry y="86" width="175" height="26" as="geometry" />
        </mxCell>
        <mxCell id="sUbH88XKsCmU9Ldnoq6X-191" value="getX(): Float" style="text;strokeColor=none;fillColor=none;align=left;verticalAlign=top;spacingLeft=4;spacingRight=4;overflow=hidden;rotatable=0;points=[[0,0.5],[1,0.5]];portConstraint=eastwest;whiteSpace=wrap;html=1;" vertex="1" parent="sUbH88XKsCmU9Ldnoq6X-186">
          <mxGeometry y="112" width="175" height="26" as="geometry" />
        </mxCell>
        <mxCell id="sUbH88XKsCmU9Ldnoq6X-198" value="getY(): Float" style="text;strokeColor=none;fillColor=none;align=left;verticalAlign=top;spacingLeft=4;spacingRight=4;overflow=hidden;rotatable=0;points=[[0,0.5],[1,0.5]];portConstraint=eastwest;whiteSpace=wrap;html=1;" vertex="1" parent="sUbH88XKsCmU9Ldnoq6X-186">
          <mxGeometry y="138" width="175" height="26" as="geometry" />
        </mxCell>
        <mxCell id="sUbH88XKsCmU9Ldnoq6X-200" value="DrawBoardManager" style="swimlane;fontStyle=0;childLayout=stackLayout;horizontal=1;startSize=26;fillColor=none;horizontalStack=0;resizeParent=1;resizeParentMax=0;resizeLast=0;collapsible=1;marginBottom=0;whiteSpace=wrap;html=1;" vertex="1" parent="WIyWlLk6GJQsqaUBKTNV-1">
          <mxGeometry x="1109" y="1003" width="189" height="52" as="geometry">
            <mxRectangle x="260" y="53" width="115" height="26" as="alternateBounds" />
          </mxGeometry>
        </mxCell>
        <mxCell id="sUbH88XKsCmU9Ldnoq6X-266" value="fill(_cell: Cell, _color: Color" style="text;strokeColor=none;fillColor=none;align=left;verticalAlign=top;spacingLeft=4;spacingRight=4;overflow=hidden;rotatable=0;points=[[0,0.5],[1,0.5]];portConstraint=eastwest;whiteSpace=wrap;html=1;" vertex="1" parent="sUbH88XKsCmU9Ldnoq6X-200">
          <mxGeometry y="26" width="189" height="26" as="geometry" />
        </mxCell>
        <mxCell id="sUbH88XKsCmU9Ldnoq6X-205" value="SoundManager" style="swimlane;fontStyle=0;childLayout=stackLayout;horizontal=1;startSize=26;fillColor=none;horizontalStack=0;resizeParent=1;resizeParentMax=0;resizeLast=0;collapsible=1;marginBottom=0;whiteSpace=wrap;html=1;" vertex="1" parent="WIyWlLk6GJQsqaUBKTNV-1">
          <mxGeometry x="772" y="291" width="140" height="86" as="geometry">
            <mxRectangle x="260" y="53" width="115" height="26" as="alternateBounds" />
          </mxGeometry>
        </mxCell>
        <mxCell id="sUbH88XKsCmU9Ldnoq6X-222" value="sounds: List&amp;lt;Sound&amp;gt;" style="text;strokeColor=none;fillColor=none;align=left;verticalAlign=top;spacingLeft=4;spacingRight=4;overflow=hidden;rotatable=0;points=[[0,0.5],[1,0.5]];portConstraint=eastwest;whiteSpace=wrap;html=1;" vertex="1" parent="sUbH88XKsCmU9Ldnoq6X-205">
          <mxGeometry y="26" width="140" height="26" as="geometry" />
        </mxCell>
        <mxCell id="sUbH88XKsCmU9Ldnoq6X-207" value="" style="line;strokeWidth=1;fillColor=none;align=left;verticalAlign=middle;spacingTop=-1;spacingLeft=3;spacingRight=3;rotatable=0;labelPosition=right;points=[];portConstraint=eastwest;strokeColor=inherit;" vertex="1" parent="sUbH88XKsCmU9Ldnoq6X-205">
          <mxGeometry y="52" width="140" height="8" as="geometry" />
        </mxCell>
        <mxCell id="sUbH88XKsCmU9Ldnoq6X-208" value="playSound()" style="text;strokeColor=none;fillColor=none;align=left;verticalAlign=top;spacingLeft=4;spacingRight=4;overflow=hidden;rotatable=0;points=[[0,0.5],[1,0.5]];portConstraint=eastwest;whiteSpace=wrap;html=1;" vertex="1" parent="sUbH88XKsCmU9Ldnoq6X-205">
          <mxGeometry y="60" width="140" height="26" as="geometry" />
        </mxCell>
        <mxCell id="sUbH88XKsCmU9Ldnoq6X-214" value="Tetromino" style="swimlane;fontStyle=0;childLayout=stackLayout;horizontal=1;startSize=26;fillColor=none;horizontalStack=0;resizeParent=1;resizeParentMax=0;resizeLast=0;collapsible=1;marginBottom=0;whiteSpace=wrap;html=1;" vertex="1" parent="WIyWlLk6GJQsqaUBKTNV-1">
          <mxGeometry x="1324" y="559" width="175" height="138" as="geometry">
            <mxRectangle x="260" y="53" width="115" height="26" as="alternateBounds" />
          </mxGeometry>
        </mxCell>
        <mxCell id="sUbH88XKsCmU9Ldnoq6X-215" value="points: List&amp;lt;Block&amp;gt;" style="text;strokeColor=none;fillColor=none;align=left;verticalAlign=top;spacingLeft=4;spacingRight=4;overflow=hidden;rotatable=0;points=[[0,0.5],[1,0.5]];portConstraint=eastwest;whiteSpace=wrap;html=1;" vertex="1" parent="sUbH88XKsCmU9Ldnoq6X-214">
          <mxGeometry y="26" width="175" height="26" as="geometry" />
        </mxCell>
        <mxCell id="sUbH88XKsCmU9Ldnoq6X-253" value="color: Color" style="text;strokeColor=none;fillColor=none;align=left;verticalAlign=top;spacingLeft=4;spacingRight=4;overflow=hidden;rotatable=0;points=[[0,0.5],[1,0.5]];portConstraint=eastwest;whiteSpace=wrap;html=1;" vertex="1" parent="sUbH88XKsCmU9Ldnoq6X-214">
          <mxGeometry y="52" width="175" height="26" as="geometry" />
        </mxCell>
        <mxCell id="sUbH88XKsCmU9Ldnoq6X-217" value="" style="line;strokeWidth=1;fillColor=none;align=left;verticalAlign=middle;spacingTop=-1;spacingLeft=3;spacingRight=3;rotatable=0;labelPosition=right;points=[];portConstraint=eastwest;strokeColor=inherit;" vertex="1" parent="sUbH88XKsCmU9Ldnoq6X-214">
          <mxGeometry y="78" width="175" height="8" as="geometry" />
        </mxCell>
        <mxCell id="sUbH88XKsCmU9Ldnoq6X-218" value="rotate()" style="text;strokeColor=none;fillColor=none;align=left;verticalAlign=top;spacingLeft=4;spacingRight=4;overflow=hidden;rotatable=0;points=[[0,0.5],[1,0.5]];portConstraint=eastwest;whiteSpace=wrap;html=1;" vertex="1" parent="sUbH88XKsCmU9Ldnoq6X-214">
          <mxGeometry y="86" width="175" height="26" as="geometry" />
        </mxCell>
        <mxCell id="sUbH88XKsCmU9Ldnoq6X-219" value="getShape(): List&amp;lt;Block&amp;gt;" style="text;strokeColor=none;fillColor=none;align=left;verticalAlign=top;spacingLeft=4;spacingRight=4;overflow=hidden;rotatable=0;points=[[0,0.5],[1,0.5]];portConstraint=eastwest;whiteSpace=wrap;html=1;" vertex="1" parent="sUbH88XKsCmU9Ldnoq6X-214">
          <mxGeometry y="112" width="175" height="26" as="geometry" />
        </mxCell>
        <mxCell id="sUbH88XKsCmU9Ldnoq6X-223" value="Sound" style="swimlane;fontStyle=0;childLayout=stackLayout;horizontal=1;startSize=26;fillColor=none;horizontalStack=0;resizeParent=1;resizeParentMax=0;resizeLast=0;collapsible=1;marginBottom=0;whiteSpace=wrap;html=1;" vertex="1" parent="WIyWlLk6GJQsqaUBKTNV-1">
          <mxGeometry x="587.5" y="424" width="140" height="86" as="geometry">
            <mxRectangle x="260" y="53" width="115" height="26" as="alternateBounds" />
          </mxGeometry>
        </mxCell>
        <mxCell id="sUbH88XKsCmU9Ldnoq6X-224" value="pathToSound: String" style="text;strokeColor=none;fillColor=none;align=left;verticalAlign=top;spacingLeft=4;spacingRight=4;overflow=hidden;rotatable=0;points=[[0,0.5],[1,0.5]];portConstraint=eastwest;whiteSpace=wrap;html=1;" vertex="1" parent="sUbH88XKsCmU9Ldnoq6X-223">
          <mxGeometry y="26" width="140" height="26" as="geometry" />
        </mxCell>
        <mxCell id="sUbH88XKsCmU9Ldnoq6X-226" value="" style="line;strokeWidth=1;fillColor=none;align=left;verticalAlign=middle;spacingTop=-1;spacingLeft=3;spacingRight=3;rotatable=0;labelPosition=right;points=[];portConstraint=eastwest;strokeColor=inherit;" vertex="1" parent="sUbH88XKsCmU9Ldnoq6X-223">
          <mxGeometry y="52" width="140" height="8" as="geometry" />
        </mxCell>
        <mxCell id="sUbH88XKsCmU9Ldnoq6X-227" value="play()" style="text;strokeColor=none;fillColor=none;align=left;verticalAlign=top;spacingLeft=4;spacingRight=4;overflow=hidden;rotatable=0;points=[[0,0.5],[1,0.5]];portConstraint=eastwest;whiteSpace=wrap;html=1;" vertex="1" parent="sUbH88XKsCmU9Ldnoq6X-223">
          <mxGeometry y="60" width="140" height="26" as="geometry" />
        </mxCell>
        <mxCell id="sUbH88XKsCmU9Ldnoq6X-229" value="Settings" style="swimlane;fontStyle=0;childLayout=stackLayout;horizontal=1;startSize=26;fillColor=none;horizontalStack=0;resizeParent=1;resizeParentMax=0;resizeLast=0;collapsible=1;marginBottom=0;whiteSpace=wrap;html=1;" vertex="1" parent="WIyWlLk6GJQsqaUBKTNV-1">
          <mxGeometry x="294" y="738" width="140" height="78" as="geometry">
            <mxRectangle x="260" y="53" width="115" height="26" as="alternateBounds" />
          </mxGeometry>
        </mxCell>
        <mxCell id="sUbH88XKsCmU9Ldnoq6X-230" value="soundsVolume: Float" style="text;strokeColor=none;fillColor=none;align=left;verticalAlign=top;spacingLeft=4;spacingRight=4;overflow=hidden;rotatable=0;points=[[0,0.5],[1,0.5]];portConstraint=eastwest;whiteSpace=wrap;html=1;" vertex="1" parent="sUbH88XKsCmU9Ldnoq6X-229">
          <mxGeometry y="26" width="140" height="26" as="geometry" />
        </mxCell>
        <mxCell id="sUbH88XKsCmU9Ldnoq6X-232" value="playerName: String" style="text;strokeColor=none;fillColor=none;align=left;verticalAlign=top;spacingLeft=4;spacingRight=4;overflow=hidden;rotatable=0;points=[[0,0.5],[1,0.5]];portConstraint=eastwest;whiteSpace=wrap;html=1;" vertex="1" parent="sUbH88XKsCmU9Ldnoq6X-229">
          <mxGeometry y="52" width="140" height="26" as="geometry" />
        </mxCell>
        <mxCell id="sUbH88XKsCmU9Ldnoq6X-234" value="DrawSettingWindow" style="swimlane;fontStyle=0;childLayout=stackLayout;horizontal=1;startSize=26;fillColor=none;horizontalStack=0;resizeParent=1;resizeParentMax=0;resizeLast=0;collapsible=1;marginBottom=0;whiteSpace=wrap;html=1;" vertex="1" parent="WIyWlLk6GJQsqaUBKTNV-1">
          <mxGeometry x="809" y="996" width="140" height="52" as="geometry">
            <mxRectangle x="260" y="53" width="115" height="26" as="alternateBounds" />
          </mxGeometry>
        </mxCell>
        <mxCell id="sUbH88XKsCmU9Ldnoq6X-240" value="DrawHistoryWindow" style="swimlane;fontStyle=0;childLayout=stackLayout;horizontal=1;startSize=26;fillColor=none;horizontalStack=0;resizeParent=1;resizeParentMax=0;resizeLast=0;collapsible=1;marginBottom=0;whiteSpace=wrap;html=1;" vertex="1" parent="WIyWlLk6GJQsqaUBKTNV-1">
          <mxGeometry x="1432" y="996" width="140" height="52" as="geometry">
            <mxRectangle x="260" y="53" width="115" height="26" as="alternateBounds" />
          </mxGeometry>
        </mxCell>
        <mxCell id="sUbH88XKsCmU9Ldnoq6X-244" value="&lt;p style=&quot;margin:0px;margin-top:4px;text-align:center;&quot;&gt;&lt;i&gt;&amp;lt;&amp;lt;Interface&amp;gt;&amp;gt;&lt;/i&gt;&lt;br&gt;&lt;b&gt;Drawable&lt;/b&gt;&lt;/p&gt;&lt;hr size=&quot;1&quot; style=&quot;border-style:solid;&quot;&gt;&lt;p style=&quot;margin:0px;margin-left:4px;&quot;&gt;draw()&lt;/p&gt;" style="verticalAlign=top;align=left;overflow=fill;html=1;whiteSpace=wrap;" vertex="1" parent="WIyWlLk6GJQsqaUBKTNV-1">
          <mxGeometry x="1108" y="1093" width="190" height="63" as="geometry" />
        </mxCell>
        <mxCell id="sUbH88XKsCmU9Ldnoq6X-246" value="" style="endArrow=block;dashed=1;endFill=0;endSize=12;html=1;rounded=0;exitX=1;exitY=1;exitDx=0;exitDy=0;entryX=0;entryY=0;entryDx=0;entryDy=0;" edge="1" parent="WIyWlLk6GJQsqaUBKTNV-1" source="sUbH88XKsCmU9Ldnoq6X-234" target="sUbH88XKsCmU9Ldnoq6X-244">
          <mxGeometry width="160" relative="1" as="geometry">
            <mxPoint x="767" y="1098" as="sourcePoint" />
            <mxPoint x="927" y="1098" as="targetPoint" />
          </mxGeometry>
        </mxCell>
        <mxCell id="sUbH88XKsCmU9Ldnoq6X-247" value="" style="endArrow=block;dashed=1;endFill=0;endSize=12;html=1;rounded=0;exitX=0.5;exitY=1;exitDx=0;exitDy=0;entryX=0.5;entryY=0;entryDx=0;entryDy=0;" edge="1" parent="WIyWlLk6GJQsqaUBKTNV-1" source="sUbH88XKsCmU9Ldnoq6X-200" target="sUbH88XKsCmU9Ldnoq6X-244">
          <mxGeometry width="160" relative="1" as="geometry">
            <mxPoint x="1239" y="1151" as="sourcePoint" />
            <mxPoint x="1399" y="1151" as="targetPoint" />
          </mxGeometry>
        </mxCell>
        <mxCell id="sUbH88XKsCmU9Ldnoq6X-248" value="" style="endArrow=block;dashed=1;endFill=0;endSize=12;html=1;rounded=0;entryX=1;entryY=0;entryDx=0;entryDy=0;exitX=0;exitY=1;exitDx=0;exitDy=0;" edge="1" parent="WIyWlLk6GJQsqaUBKTNV-1" source="sUbH88XKsCmU9Ldnoq6X-240" target="sUbH88XKsCmU9Ldnoq6X-244">
          <mxGeometry width="160" relative="1" as="geometry">
            <mxPoint x="1240" y="1059" as="sourcePoint" />
            <mxPoint x="1208" y="1184" as="targetPoint" />
          </mxGeometry>
        </mxCell>
        <mxCell id="sUbH88XKsCmU9Ldnoq6X-251" value="" style="endArrow=diamondThin;endFill=0;endSize=24;html=1;rounded=0;exitX=0;exitY=0.5;exitDx=0;exitDy=0;entryX=1;entryY=0.5;entryDx=0;entryDy=0;" edge="1" parent="WIyWlLk6GJQsqaUBKTNV-1" source="sUbH88XKsCmU9Ldnoq6X-185" target="sUbH88XKsCmU9Ldnoq6X-253">
          <mxGeometry width="160" relative="1" as="geometry">
            <mxPoint x="1673" y="487" as="sourcePoint" />
            <mxPoint x="1551" y="624" as="targetPoint" />
          </mxGeometry>
        </mxCell>
        <mxCell id="sUbH88XKsCmU9Ldnoq6X-252" value="" style="endArrow=diamondThin;endFill=0;endSize=24;html=1;rounded=0;entryX=0.5;entryY=0;entryDx=0;entryDy=0;" edge="1" parent="WIyWlLk6GJQsqaUBKTNV-1" source="sUbH88XKsCmU9Ldnoq6X-198" target="sUbH88XKsCmU9Ldnoq6X-185">
          <mxGeometry width="160" relative="1" as="geometry">
            <mxPoint x="1780" y="716" as="sourcePoint" />
            <mxPoint x="1675" y="716" as="targetPoint" />
          </mxGeometry>
        </mxCell>
        <mxCell id="sUbH88XKsCmU9Ldnoq6X-259" value="" style="endArrow=diamondThin;endFill=0;endSize=24;html=1;rounded=0;exitX=0;exitY=0.5;exitDx=0;exitDy=0;entryX=0.479;entryY=1.007;entryDx=0;entryDy=0;entryPerimeter=0;" edge="1" parent="WIyWlLk6GJQsqaUBKTNV-1" source="sUbH88XKsCmU9Ldnoq6X-136" target="sUbH88XKsCmU9Ldnoq6X-208">
          <mxGeometry width="160" relative="1" as="geometry">
            <mxPoint x="891" y="420" as="sourcePoint" />
            <mxPoint x="837" y="384" as="targetPoint" />
            <Array as="points">
              <mxPoint x="837" y="502" />
            </Array>
          </mxGeometry>
        </mxCell>
        <mxCell id="sUbH88XKsCmU9Ldnoq6X-261" value="" style="endArrow=diamondThin;endFill=0;endSize=24;html=1;rounded=0;exitX=1;exitY=0.25;exitDx=0;exitDy=0;entryX=1.079;entryY=0.992;entryDx=0;entryDy=0;entryPerimeter=0;" edge="1" parent="WIyWlLk6GJQsqaUBKTNV-1" source="sUbH88XKsCmU9Ldnoq6X-229" target="sUbH88XKsCmU9Ldnoq6X-321">
          <mxGeometry width="160" relative="1" as="geometry">
            <mxPoint x="874" y="655" as="sourcePoint" />
            <mxPoint x="812" y="530" as="targetPoint" />
            <Array as="points" />
          </mxGeometry>
        </mxCell>
        <mxCell id="sUbH88XKsCmU9Ldnoq6X-262" value="" style="endArrow=open;endFill=1;endSize=12;html=1;rounded=0;entryX=0.5;entryY=0;entryDx=0;entryDy=0;exitX=0.514;exitY=1.051;exitDx=0;exitDy=0;exitPerimeter=0;" edge="1" parent="WIyWlLk6GJQsqaUBKTNV-1" source="sUbH88XKsCmU9Ldnoq6X-227" target="sUbH88XKsCmU9Ldnoq6X-173">
          <mxGeometry width="160" relative="1" as="geometry">
            <mxPoint x="768" y="578" as="sourcePoint" />
            <mxPoint x="638" y="578" as="targetPoint" />
          </mxGeometry>
        </mxCell>
        <mxCell id="sUbH88XKsCmU9Ldnoq6X-263" value="" style="endArrow=open;endFill=1;endSize=12;html=1;rounded=0;entryX=0.5;entryY=0;entryDx=0;entryDy=0;exitX=0;exitY=0.5;exitDx=0;exitDy=0;" edge="1" parent="WIyWlLk6GJQsqaUBKTNV-1" source="sUbH88XKsCmU9Ldnoq6X-222" target="sUbH88XKsCmU9Ldnoq6X-223">
          <mxGeometry width="160" relative="1" as="geometry">
            <mxPoint x="748" y="291" as="sourcePoint" />
            <mxPoint x="618" y="291" as="targetPoint" />
            <Array as="points">
              <mxPoint x="658" y="330" />
            </Array>
          </mxGeometry>
        </mxCell>
        <mxCell id="sUbH88XKsCmU9Ldnoq6X-264" value="" style="endArrow=diamondThin;endFill=0;endSize=24;html=1;rounded=0;exitX=0.518;exitY=0.994;exitDx=0;exitDy=0;entryX=0.75;entryY=0;entryDx=0;entryDy=0;exitPerimeter=0;" edge="1" parent="WIyWlLk6GJQsqaUBKTNV-1" source="sUbH88XKsCmU9Ldnoq6X-212" target="sUbH88XKsCmU9Ldnoq6X-134">
          <mxGeometry width="160" relative="1" as="geometry">
            <mxPoint x="1145.75" y="416" as="sourcePoint" />
            <mxPoint x="1039.75" y="416" as="targetPoint" />
          </mxGeometry>
        </mxCell>
        <mxCell id="sUbH88XKsCmU9Ldnoq6X-270" value="" style="endArrow=diamondThin;endFill=0;endSize=24;html=1;rounded=0;exitX=0.5;exitY=0;exitDx=0;exitDy=0;" edge="1" parent="WIyWlLk6GJQsqaUBKTNV-1" source="sUbH88XKsCmU9Ldnoq6X-214" target="sUbH88XKsCmU9Ldnoq6X-150">
          <mxGeometry width="160" relative="1" as="geometry">
            <mxPoint x="1427" y="623" as="sourcePoint" />
            <mxPoint x="1295" y="624" as="targetPoint" />
          </mxGeometry>
        </mxCell>
        <mxCell id="sUbH88XKsCmU9Ldnoq6X-271" value="" style="endArrow=diamondThin;endFill=0;endSize=24;html=1;rounded=0;exitX=0;exitY=0.5;exitDx=0;exitDy=0;entryX=1;entryY=0.5;entryDx=0;entryDy=0;" edge="1" parent="WIyWlLk6GJQsqaUBKTNV-1" source="sUbH88XKsCmU9Ldnoq6X-151" target="sUbH88XKsCmU9Ldnoq6X-131">
          <mxGeometry width="160" relative="1" as="geometry">
            <mxPoint x="1253" y="527" as="sourcePoint" />
            <mxPoint x="1253" y="380" as="targetPoint" />
          </mxGeometry>
        </mxCell>
        <mxCell id="sUbH88XKsCmU9Ldnoq6X-273" value="&lt;font style=&quot;font-size: 20px;&quot;&gt;*&lt;/font&gt;" style="text;html=1;align=center;verticalAlign=middle;resizable=0;points=[];autosize=1;strokeColor=none;fillColor=none;" vertex="1" parent="WIyWlLk6GJQsqaUBKTNV-1">
          <mxGeometry x="628" y="399" width="26" height="36" as="geometry" />
        </mxCell>
        <mxCell id="sUbH88XKsCmU9Ldnoq6X-274" value="&lt;font style=&quot;font-size: 20px;&quot;&gt;*&lt;/font&gt;" style="text;html=1;align=center;verticalAlign=middle;resizable=0;points=[];autosize=1;strokeColor=none;fillColor=none;" vertex="1" parent="WIyWlLk6GJQsqaUBKTNV-1">
          <mxGeometry x="1389" y="537" width="26" height="36" as="geometry" />
        </mxCell>
        <mxCell id="sUbH88XKsCmU9Ldnoq6X-275" value="&lt;font style=&quot;font-size: 20px;&quot;&gt;*&lt;/font&gt;" style="text;html=1;align=center;verticalAlign=middle;resizable=0;points=[];autosize=1;strokeColor=none;fillColor=none;" vertex="1" parent="WIyWlLk6GJQsqaUBKTNV-1">
          <mxGeometry x="1570" y="621" width="26" height="36" as="geometry" />
        </mxCell>
        <mxCell id="sUbH88XKsCmU9Ldnoq6X-277" value="Cell" style="swimlane;fontStyle=0;childLayout=stackLayout;horizontal=1;startSize=26;fillColor=none;horizontalStack=0;resizeParent=1;resizeParentMax=0;resizeLast=0;collapsible=1;marginBottom=0;whiteSpace=wrap;html=1;" vertex="1" parent="WIyWlLk6GJQsqaUBKTNV-1">
          <mxGeometry x="1617" y="190" width="175" height="138" as="geometry">
            <mxRectangle x="260" y="53" width="115" height="26" as="alternateBounds" />
          </mxGeometry>
        </mxCell>
        <mxCell id="sUbH88XKsCmU9Ldnoq6X-278" value="isFilled: Bool" style="text;strokeColor=none;fillColor=none;align=left;verticalAlign=top;spacingLeft=4;spacingRight=4;overflow=hidden;rotatable=0;points=[[0,0.5],[1,0.5]];portConstraint=eastwest;whiteSpace=wrap;html=1;" vertex="1" parent="sUbH88XKsCmU9Ldnoq6X-277">
          <mxGeometry y="26" width="175" height="26" as="geometry" />
        </mxCell>
        <mxCell id="sUbH88XKsCmU9Ldnoq6X-279" value="color: Color" style="text;strokeColor=none;fillColor=none;align=left;verticalAlign=top;spacingLeft=4;spacingRight=4;overflow=hidden;rotatable=0;points=[[0,0.5],[1,0.5]];portConstraint=eastwest;whiteSpace=wrap;html=1;" vertex="1" parent="sUbH88XKsCmU9Ldnoq6X-277">
          <mxGeometry y="52" width="175" height="26" as="geometry" />
        </mxCell>
        <mxCell id="sUbH88XKsCmU9Ldnoq6X-280" value="" style="line;strokeWidth=1;fillColor=none;align=left;verticalAlign=middle;spacingTop=-1;spacingLeft=3;spacingRight=3;rotatable=0;labelPosition=right;points=[];portConstraint=eastwest;strokeColor=inherit;" vertex="1" parent="sUbH88XKsCmU9Ldnoq6X-277">
          <mxGeometry y="78" width="175" height="8" as="geometry" />
        </mxCell>
        <mxCell id="sUbH88XKsCmU9Ldnoq6X-281" value="clear()" style="text;strokeColor=none;fillColor=none;align=left;verticalAlign=top;spacingLeft=4;spacingRight=4;overflow=hidden;rotatable=0;points=[[0,0.5],[1,0.5]];portConstraint=eastwest;whiteSpace=wrap;html=1;" vertex="1" parent="sUbH88XKsCmU9Ldnoq6X-277">
          <mxGeometry y="86" width="175" height="26" as="geometry" />
        </mxCell>
        <mxCell id="sUbH88XKsCmU9Ldnoq6X-282" value="fill()" style="text;strokeColor=none;fillColor=none;align=left;verticalAlign=top;spacingLeft=4;spacingRight=4;overflow=hidden;rotatable=0;points=[[0,0.5],[1,0.5]];portConstraint=eastwest;whiteSpace=wrap;html=1;" vertex="1" parent="sUbH88XKsCmU9Ldnoq6X-277">
          <mxGeometry y="112" width="175" height="26" as="geometry" />
        </mxCell>
        <mxCell id="sUbH88XKsCmU9Ldnoq6X-284" value="" style="endArrow=diamondThin;endFill=0;endSize=24;html=1;rounded=0;exitX=0;exitY=0.5;exitDx=0;exitDy=0;entryX=1;entryY=0.5;entryDx=0;entryDy=0;" edge="1" parent="WIyWlLk6GJQsqaUBKTNV-1" source="sUbH88XKsCmU9Ldnoq6X-279" target="sUbH88XKsCmU9Ldnoq6X-151">
          <mxGeometry width="160" relative="1" as="geometry">
            <mxPoint x="1568" y="388" as="sourcePoint" />
            <mxPoint x="1567" y="234" as="targetPoint" />
          </mxGeometry>
        </mxCell>
        <mxCell id="sUbH88XKsCmU9Ldnoq6X-285" value="&lt;font style=&quot;font-size: 20px;&quot;&gt;*&lt;/font&gt;" style="text;html=1;align=center;verticalAlign=middle;resizable=0;points=[];autosize=1;strokeColor=none;fillColor=none;" vertex="1" parent="WIyWlLk6GJQsqaUBKTNV-1">
          <mxGeometry x="1598" y="251" width="26" height="36" as="geometry" />
        </mxCell>
        <mxCell id="sUbH88XKsCmU9Ldnoq6X-288" value="&lt;font style=&quot;font-size: 15px;&quot;&gt;1&lt;/font&gt;" style="text;html=1;align=center;verticalAlign=middle;resizable=0;points=[];autosize=1;strokeColor=none;fillColor=none;" vertex="1" parent="WIyWlLk6GJQsqaUBKTNV-1">
          <mxGeometry x="1496" y="630" width="26" height="30" as="geometry" />
        </mxCell>
        <mxCell id="sUbH88XKsCmU9Ldnoq6X-289" value="&lt;font style=&quot;font-size: 15px;&quot;&gt;1&lt;/font&gt;" style="text;html=1;align=center;verticalAlign=middle;resizable=0;points=[];autosize=1;strokeColor=none;fillColor=none;" vertex="1" parent="WIyWlLk6GJQsqaUBKTNV-1">
          <mxGeometry x="1415" y="405" width="26" height="30" as="geometry" />
        </mxCell>
        <mxCell id="sUbH88XKsCmU9Ldnoq6X-290" value="&lt;font style=&quot;font-size: 15px;&quot;&gt;1&lt;/font&gt;" style="text;html=1;align=center;verticalAlign=middle;resizable=0;points=[];autosize=1;strokeColor=none;fillColor=none;" vertex="1" parent="WIyWlLk6GJQsqaUBKTNV-1">
          <mxGeometry x="1686" y="555" width="26" height="30" as="geometry" />
        </mxCell>
        <mxCell id="sUbH88XKsCmU9Ldnoq6X-291" value="&lt;font style=&quot;font-size: 15px;&quot;&gt;1&lt;/font&gt;" style="text;html=1;align=center;verticalAlign=middle;resizable=0;points=[];autosize=1;strokeColor=none;fillColor=none;" vertex="1" parent="WIyWlLk6GJQsqaUBKTNV-1">
          <mxGeometry x="1686" y="532" width="26" height="30" as="geometry" />
        </mxCell>
        <mxCell id="sUbH88XKsCmU9Ldnoq6X-292" value="&lt;font style=&quot;font-size: 15px;&quot;&gt;1&lt;/font&gt;" style="text;html=1;align=center;verticalAlign=middle;resizable=0;points=[];autosize=1;strokeColor=none;fillColor=none;" vertex="1" parent="WIyWlLk6GJQsqaUBKTNV-1">
          <mxGeometry x="1528" y="261" width="26" height="30" as="geometry" />
        </mxCell>
        <mxCell id="sUbH88XKsCmU9Ldnoq6X-293" value="&lt;font style=&quot;font-size: 15px;&quot;&gt;1&lt;/font&gt;" style="text;html=1;align=center;verticalAlign=middle;resizable=0;points=[];autosize=1;strokeColor=none;fillColor=none;" vertex="1" parent="WIyWlLk6GJQsqaUBKTNV-1">
          <mxGeometry x="1272" y="226" width="26" height="30" as="geometry" />
        </mxCell>
        <mxCell id="sUbH88XKsCmU9Ldnoq6X-294" value="&lt;font style=&quot;font-size: 15px;&quot;&gt;1&lt;/font&gt;" style="text;html=1;align=center;verticalAlign=middle;resizable=0;points=[];autosize=1;strokeColor=none;fillColor=none;" vertex="1" parent="WIyWlLk6GJQsqaUBKTNV-1">
          <mxGeometry x="1152" y="226" width="26" height="30" as="geometry" />
        </mxCell>
        <mxCell id="sUbH88XKsCmU9Ldnoq6X-295" value="&lt;font style=&quot;font-size: 15px;&quot;&gt;1&lt;/font&gt;" style="text;html=1;align=center;verticalAlign=middle;resizable=0;points=[];autosize=1;strokeColor=none;fillColor=none;" vertex="1" parent="WIyWlLk6GJQsqaUBKTNV-1">
          <mxGeometry x="1313" y="769" width="26" height="30" as="geometry" />
        </mxCell>
        <mxCell id="sUbH88XKsCmU9Ldnoq6X-296" value="" style="endArrow=diamondThin;endFill=0;endSize=24;html=1;rounded=0;entryX=1.002;entryY=0.147;entryDx=0;entryDy=0;entryPerimeter=0;exitX=1.066;exitY=0.924;exitDx=0;exitDy=0;exitPerimeter=0;" edge="1" parent="WIyWlLk6GJQsqaUBKTNV-1" source="sUbH88XKsCmU9Ldnoq6X-295" target="sUbH88XKsCmU9Ldnoq6X-170">
          <mxGeometry width="160" relative="1" as="geometry">
            <mxPoint x="1323" y="793.9870335089095" as="sourcePoint" />
            <mxPoint x="1188" y="798.41" as="targetPoint" />
          </mxGeometry>
        </mxCell>
        <mxCell id="sUbH88XKsCmU9Ldnoq6X-300" value="&lt;font style=&quot;font-size: 15px;&quot;&gt;1&lt;/font&gt;" style="text;html=1;align=center;verticalAlign=middle;resizable=0;points=[];autosize=1;strokeColor=none;fillColor=none;" vertex="1" parent="WIyWlLk6GJQsqaUBKTNV-1">
          <mxGeometry x="1157" y="762" width="26" height="30" as="geometry" />
        </mxCell>
        <mxCell id="sUbH88XKsCmU9Ldnoq6X-301" value="&lt;font style=&quot;font-size: 15px;&quot;&gt;1&lt;/font&gt;" style="text;html=1;align=center;verticalAlign=middle;resizable=0;points=[];autosize=1;strokeColor=none;fillColor=none;" vertex="1" parent="WIyWlLk6GJQsqaUBKTNV-1">
          <mxGeometry x="1502" y="964" width="26" height="30" as="geometry" />
        </mxCell>
        <mxCell id="sUbH88XKsCmU9Ldnoq6X-302" value="&lt;font style=&quot;font-size: 15px;&quot;&gt;1&lt;/font&gt;" style="text;html=1;align=center;verticalAlign=middle;resizable=0;points=[];autosize=1;strokeColor=none;fillColor=none;" vertex="1" parent="WIyWlLk6GJQsqaUBKTNV-1">
          <mxGeometry x="1502" y="870" width="26" height="30" as="geometry" />
        </mxCell>
        <mxCell id="sUbH88XKsCmU9Ldnoq6X-303" value="" style="endArrow=diamondThin;endFill=0;endSize=24;html=1;rounded=0;exitX=0.891;exitY=0.876;exitDx=0;exitDy=0;entryX=0;entryY=0.5;entryDx=0;entryDy=0;exitPerimeter=0;" edge="1" parent="WIyWlLk6GJQsqaUBKTNV-1" source="sUbH88XKsCmU9Ldnoq6X-309" target="sUbH88XKsCmU9Ldnoq6X-166">
          <mxGeometry width="160" relative="1" as="geometry">
            <mxPoint x="780" y="762" as="sourcePoint" />
            <mxPoint x="882" y="762" as="targetPoint" />
            <Array as="points" />
          </mxGeometry>
        </mxCell>
        <mxCell id="sUbH88XKsCmU9Ldnoq6X-305" value="" style="endArrow=diamondThin;endFill=0;endSize=24;html=1;rounded=0;entryX=0.5;entryY=0;entryDx=0;entryDy=0;" edge="1" parent="WIyWlLk6GJQsqaUBKTNV-1" source="sUbH88XKsCmU9Ldnoq6X-139" target="sUbH88XKsCmU9Ldnoq6X-162">
          <mxGeometry width="160" relative="1" as="geometry">
            <mxPoint x="780" y="621" as="sourcePoint" />
            <mxPoint x="882" y="621" as="targetPoint" />
            <Array as="points" />
          </mxGeometry>
        </mxCell>
        <mxCell id="sUbH88XKsCmU9Ldnoq6X-306" value="&lt;font style=&quot;font-size: 15px;&quot;&gt;1&lt;/font&gt;" style="text;html=1;align=center;verticalAlign=middle;resizable=0;points=[];autosize=1;strokeColor=none;fillColor=none;" vertex="1" parent="WIyWlLk6GJQsqaUBKTNV-1">
          <mxGeometry x="1018" y="597" width="26" height="30" as="geometry" />
        </mxCell>
        <mxCell id="sUbH88XKsCmU9Ldnoq6X-307" value="&lt;font style=&quot;font-size: 15px;&quot;&gt;1&lt;/font&gt;" style="text;html=1;align=center;verticalAlign=middle;resizable=0;points=[];autosize=1;strokeColor=none;fillColor=none;" vertex="1" parent="WIyWlLk6GJQsqaUBKTNV-1">
          <mxGeometry x="1023" y="656" width="26" height="30" as="geometry" />
        </mxCell>
        <mxCell id="sUbH88XKsCmU9Ldnoq6X-308" value="&lt;font style=&quot;font-size: 15px;&quot;&gt;1&lt;/font&gt;" style="text;html=1;align=center;verticalAlign=middle;resizable=0;points=[];autosize=1;strokeColor=none;fillColor=none;" vertex="1" parent="WIyWlLk6GJQsqaUBKTNV-1">
          <mxGeometry x="866" y="720" width="26" height="30" as="geometry" />
        </mxCell>
        <mxCell id="sUbH88XKsCmU9Ldnoq6X-309" value="&lt;font style=&quot;font-size: 15px;&quot;&gt;1&lt;/font&gt;" style="text;html=1;align=center;verticalAlign=middle;resizable=0;points=[];autosize=1;strokeColor=none;fillColor=none;" vertex="1" parent="WIyWlLk6GJQsqaUBKTNV-1">
          <mxGeometry x="775" y="724" width="26" height="30" as="geometry" />
        </mxCell>
        <mxCell id="sUbH88XKsCmU9Ldnoq6X-310" value="&lt;font style=&quot;font-size: 15px;&quot;&gt;1&lt;/font&gt;" style="text;html=1;align=center;verticalAlign=middle;resizable=0;points=[];autosize=1;strokeColor=none;fillColor=none;" vertex="1" parent="WIyWlLk6GJQsqaUBKTNV-1">
          <mxGeometry x="660" y="651" width="26" height="30" as="geometry" />
        </mxCell>
        <mxCell id="sUbH88XKsCmU9Ldnoq6X-311" value="&lt;font style=&quot;font-size: 20px;&quot;&gt;*&lt;/font&gt;" style="text;html=1;align=center;verticalAlign=middle;resizable=0;points=[];autosize=1;strokeColor=none;fillColor=none;" vertex="1" parent="WIyWlLk6GJQsqaUBKTNV-1">
          <mxGeometry x="636" y="505" width="26" height="36" as="geometry" />
        </mxCell>
        <mxCell id="sUbH88XKsCmU9Ldnoq6X-312" value="&lt;font style=&quot;font-size: 15px;&quot;&gt;1&lt;/font&gt;" style="text;html=1;align=center;verticalAlign=middle;resizable=0;points=[];autosize=1;strokeColor=none;fillColor=none;" vertex="1" parent="WIyWlLk6GJQsqaUBKTNV-1">
          <mxGeometry x="875.25" y="498" width="26" height="30" as="geometry" />
        </mxCell>
        <mxCell id="sUbH88XKsCmU9Ldnoq6X-316" value="&lt;font style=&quot;font-size: 15px;&quot;&gt;1&lt;/font&gt;" style="text;html=1;align=center;verticalAlign=middle;resizable=0;points=[];autosize=1;strokeColor=none;fillColor=none;" vertex="1" parent="WIyWlLk6GJQsqaUBKTNV-1">
          <mxGeometry x="843" y="375" width="26" height="30" as="geometry" />
        </mxCell>
        <mxCell id="sUbH88XKsCmU9Ldnoq6X-317" value="&lt;font style=&quot;font-size: 15px;&quot;&gt;1&lt;/font&gt;" style="text;html=1;align=center;verticalAlign=middle;resizable=0;points=[];autosize=1;strokeColor=none;fillColor=none;" vertex="1" parent="WIyWlLk6GJQsqaUBKTNV-1">
          <mxGeometry x="1089" y="433" width="26" height="30" as="geometry" />
        </mxCell>
        <mxCell id="sUbH88XKsCmU9Ldnoq6X-318" value="&lt;font style=&quot;font-size: 15px;&quot;&gt;1&lt;/font&gt;" style="text;html=1;align=center;verticalAlign=middle;resizable=0;points=[];autosize=1;strokeColor=none;fillColor=none;" vertex="1" parent="WIyWlLk6GJQsqaUBKTNV-1">
          <mxGeometry x="1083" y="354" width="26" height="30" as="geometry" />
        </mxCell>
        <mxCell id="sUbH88XKsCmU9Ldnoq6X-319" value="&lt;font style=&quot;font-size: 15px;&quot;&gt;1&lt;/font&gt;" style="text;html=1;align=center;verticalAlign=middle;resizable=0;points=[];autosize=1;strokeColor=none;fillColor=none;" vertex="1" parent="WIyWlLk6GJQsqaUBKTNV-1">
          <mxGeometry x="783" y="994" width="26" height="30" as="geometry" />
        </mxCell>
        <mxCell id="sUbH88XKsCmU9Ldnoq6X-320" value="&lt;font style=&quot;font-size: 15px;&quot;&gt;1&lt;/font&gt;" style="text;html=1;align=center;verticalAlign=middle;resizable=0;points=[];autosize=1;strokeColor=none;fillColor=none;" vertex="1" parent="WIyWlLk6GJQsqaUBKTNV-1">
          <mxGeometry x="660" y="842" width="26" height="30" as="geometry" />
        </mxCell>
        <mxCell id="sUbH88XKsCmU9Ldnoq6X-321" value="&lt;font style=&quot;font-size: 15px;&quot;&gt;1&lt;/font&gt;" style="text;html=1;align=center;verticalAlign=middle;resizable=0;points=[];autosize=1;strokeColor=none;fillColor=none;" vertex="1" parent="WIyWlLk6GJQsqaUBKTNV-1">
          <mxGeometry x="506" y="727" width="26" height="30" as="geometry" />
        </mxCell>
        <mxCell id="sUbH88XKsCmU9Ldnoq6X-322" value="&lt;font style=&quot;font-size: 15px;&quot;&gt;1&lt;/font&gt;" style="text;html=1;align=center;verticalAlign=middle;resizable=0;points=[];autosize=1;strokeColor=none;fillColor=none;" vertex="1" parent="WIyWlLk6GJQsqaUBKTNV-1">
          <mxGeometry x="428" y="732" width="26" height="30" as="geometry" />
        </mxCell>
        <mxCell id="sUbH88XKsCmU9Ldnoq6X-323" value="&lt;font style=&quot;font-size: 15px;&quot;&gt;1&lt;/font&gt;" style="text;html=1;align=center;verticalAlign=middle;resizable=0;points=[];autosize=1;strokeColor=none;fillColor=none;" vertex="1" parent="WIyWlLk6GJQsqaUBKTNV-1">
          <mxGeometry x="875" y="824" width="26" height="30" as="geometry" />
        </mxCell>
        <mxCell id="sUbH88XKsCmU9Ldnoq6X-325" value="&lt;font style=&quot;font-size: 15px;&quot;&gt;1&lt;/font&gt;" style="text;html=1;align=center;verticalAlign=middle;resizable=0;points=[];autosize=1;strokeColor=none;fillColor=none;" vertex="1" parent="WIyWlLk6GJQsqaUBKTNV-1">
          <mxGeometry x="1211" y="973" width="26" height="30" as="geometry" />
        </mxCell>
        <mxCell id="sUbH88XKsCmU9Ldnoq6X-326" value="&lt;font style=&quot;font-size: 15px;&quot;&gt;1&lt;/font&gt;" style="text;html=1;align=center;verticalAlign=middle;resizable=0;points=[];autosize=1;strokeColor=none;fillColor=none;" vertex="1" parent="WIyWlLk6GJQsqaUBKTNV-1">
          <mxGeometry x="1263" y="282" width="26" height="30" as="geometry" />
        </mxCell>
        <mxCell id="sUbH88XKsCmU9Ldnoq6X-331" value="" style="endArrow=diamondThin;endFill=0;endSize=24;html=1;rounded=0;exitX=0;exitY=0.5;exitDx=0;exitDy=0;" edge="1" parent="WIyWlLk6GJQsqaUBKTNV-1" source="sUbH88XKsCmU9Ldnoq6X-234" target="sUbH88XKsCmU9Ldnoq6X-180">
          <mxGeometry width="160" relative="1" as="geometry">
            <mxPoint x="650" y="1082" as="sourcePoint" />
            <mxPoint x="750" y="1081" as="targetPoint" />
            <Array as="points">
              <mxPoint x="665" y="1022" />
            </Array>
          </mxGeometry>
        </mxCell>
        <mxCell id="sUbH88XKsCmU9Ldnoq6X-332" value="&lt;font style=&quot;font-size: 15px;&quot;&gt;1&lt;/font&gt;" style="text;html=1;align=center;verticalAlign=middle;resizable=0;points=[];autosize=1;strokeColor=none;fillColor=none;" vertex="1" parent="WIyWlLk6GJQsqaUBKTNV-1">
          <mxGeometry x="667" y="872" width="26" height="30" as="geometry" />
        </mxCell>
        <mxCell id="sUbH88XKsCmU9Ldnoq6X-333" value="" style="endArrow=diamondThin;endFill=0;endSize=24;html=1;rounded=0;exitX=0.5;exitY=0;exitDx=0;exitDy=0;entryX=1.148;entryY=1.062;entryDx=0;entryDy=0;entryPerimeter=0;" edge="1" parent="WIyWlLk6GJQsqaUBKTNV-1" source="sUbH88XKsCmU9Ldnoq6X-200" target="sUbH88XKsCmU9Ldnoq6X-326">
          <mxGeometry width="160" relative="1" as="geometry">
            <mxPoint x="1371" y="902" as="sourcePoint" />
            <mxPoint x="1227" y="300" as="targetPoint" />
            <Array as="points">
              <mxPoint x="1204" y="314" />
            </Array>
          </mxGeometry>
        </mxCell>
        <mxCell id="sUbH88XKsCmU9Ldnoq6X-335" value="" style="endArrow=diamondThin;endFill=0;endSize=24;html=1;rounded=0;exitX=0.5;exitY=0;exitDx=0;exitDy=0;" edge="1" parent="WIyWlLk6GJQsqaUBKTNV-1" source="sUbH88XKsCmU9Ldnoq6X-240" target="sUbH88XKsCmU9Ldnoq6X-161">
          <mxGeometry width="160" relative="1" as="geometry">
            <mxPoint x="1586.5" y="898" as="sourcePoint" />
            <mxPoint x="1495.5" y="898" as="targetPoint" />
          </mxGeometry>
        </mxCell>
      </root>
    </mxGraphModel>
  </diagram>
</mxfile>
